name ./resultDataOpenSim/trcMotMarkerGrf/sub09/grf-01-05.mot
datacolumns 19
datarows 10
range 1.39200000 1.42800000
endheader

                time	     ground_force_vx	     ground_force_vy	     ground_force_vz	     ground_force_px	     ground_force_py	     ground_force_pz	   l_ground_force_vx	   l_ground_force_vy	   l_ground_force_vz	   l_ground_force_px	   l_ground_force_py	   l_ground_force_pz	     ground_torque_x	     ground_torque_y	     ground_torque_z	   l_ground_torque_x	   l_ground_torque_y	   l_ground_torque_z	
          1.39200000	        -42.72238079	        456.56926463	        -16.92908381	          1.04777170	          0.00000000	          0.15789230	          0.00000000	          0.00000000	          0.00000000	          0.00000000	          0.00000000	          0.00000000	          0.00000000	          0.42566209	          0.00000000	          0.00000000	          0.00000000	          0.00000000	
          1.39600000	        -36.42976447	        447.62158392	        -13.40610145	          1.04772379	          0.00000000	          0.15783328	          0.00000000	          0.00000000	          0.00000000	          0.00000000	          0.00000000	          0.00000000	          0.00000000	          0.47242186	          0.00000000	          0.00000000	          0.00000000	          0.00000000	
          1.40000000	        -31.22437327	        439.09834505	        -10.36236363	          1.04773638	          0.00000000	          0.15779430	          0.00000000	          0.00000000	          0.00000000	          0.00000000	          0.00000000	          0.00000000	          0.00000000	          0.54820625	          0.00000000	          0.00000000	          0.00000000	          0.00000000	
          1.40400000	        -27.86104100	        430.97828738	         -8.21891329	          1.04798301	          0.00000000	          0.15781001	          0.00000000	          0.00000000	          0.00000000	          0.00000000	          0.00000000	          0.00000000	          0.00000000	          0.67107885	          0.00000000	          0.00000000	          0.00000000	          0.00000000	
          1.40800000	        -26.59200159	        423.29018219	         -7.25737212	          1.04851740	          0.00000000	          0.15787732	          0.00000000	          0.00000000	          0.00000000	          0.00000000	          0.00000000	          0.00000000	          0.00000000	          0.83648780	          0.00000000	          0.00000000	          0.00000000	          0.00000000	
          1.41200000	        -27.12357711	        416.07935875	         -7.56791842	          1.04930437	          0.00000000	          0.15799344	          0.00000000	          0.00000000	          0.00000000	          0.00000000	          0.00000000	          0.00000000	          0.00000000	          1.01739379	          0.00000000	          0.00000000	          0.00000000	          0.00000000	
          1.41600000	        -28.71795026	        409.36305225	         -9.02660300	          1.05025121	          0.00000000	          0.15818208	          0.00000000	          0.00000000	          0.00000000	          0.00000000	          0.00000000	          0.00000000	          0.00000000	          1.17363323	          0.00000000	          0.00000000	          0.00000000	          0.00000000	
          1.42000000	        -30.39666151	        403.14001736	        -11.31141685	          1.05123169	          0.00000000	          0.15845829	          0.00000000	          0.00000000	          0.00000000	          0.00000000	          0.00000000	          0.00000000	          0.00000000	          1.26656690	          0.00000000	          0.00000000	          0.00000000	          0.00000000	
          1.42400000	        -31.20737692	        397.43288308	        -13.96664065	          1.05205869	          0.00000000	          0.15880012	          0.00000000	          0.00000000	          0.00000000	          0.00000000	          0.00000000	          0.00000000	          0.00000000	          1.27309468	          0.00000000	          0.00000000	          0.00000000	          0.00000000	
          1.42800000	        -30.48887994	        392.30050537	        -16.49943563	          1.05257842	          0.00000000	          0.15915909	          0.00000000	          0.00000000	          0.00000000	          0.00000000	          0.00000000	          0.00000000	          0.00000000	          1.19405718	          0.00000000	          0.00000000	          0.00000000	          0.00000000	
